<svg width="36" height="23" viewBox="0 0 36 23" fill="none" xmlns="http://www.w3.org/2000/svg">
<path d="M35.3842 10.6098L24.2588 0.20327C23.969 -0.0677565 23.4997 -0.0677565 23.21 0.20327C22.9202 0.474296 22.9202 0.913323 23.21 1.18428L33.0694 10.4066H0.741722C0.331748 10.4066 0 10.7169 0 11.1004C0 11.4839 0.331748 11.7942 0.741722 11.7942H33.0694L23.21 21.0164C22.9202 21.2874 22.9202 21.7265 23.21 21.9974C23.3548 22.1329 23.5446 22.2007 23.7344 22.2007C23.9242 22.2007 24.1139 22.1329 24.2588 21.9974L35.3843 11.5909C35.674 11.3199 35.674 10.8809 35.3842 10.6098Z" fill="white"/>
</svg>
